<mxfile host="app.diagrams.net" modified="2024-05-24T05:16:32.881Z" agent="Mozilla/5.0 (X11; Linux x86_64) AppleWebKit/537.36 (KHTML, like Gecko) Chrome/124.0.0.0 Safari/537.36" version="24.2.0" etag="9ENoWSbCL1HURXNBSs4R" type="github">
  <diagram name="Page-1" id="KeXm3KWBqmcQSSC9tqiA">
    <mxGraphModel>
      <root>
        <mxCell id="0" />
        <mxCell id="1" parent="0" />
      </root>
    </mxGraphModel>
  </diagram>
</mxfile>
